<?xml version="1.0" encoding="utf-8"?>
<!-- Generator: Adobe Illustrator 18.1.0, SVG Export Plug-In . SVG Version: 6.00 Build 0)  -->
<!DOCTYPE svg PUBLIC "-//W3C//DTD SVG 1.1//EN" "http://www.w3.org/Graphics/SVG/1.1/DTD/svg11.dtd">
<svg version="1.1" id="Layer_1" xmlns="http://www.w3.org/2000/svg" xmlns:xlink="http://www.w3.org/1999/xlink" x="0px" y="0px"
	 width="160.8px" height="225.2px" viewBox="0 0 160.8 225.2" style="enable-background:new 0 0 160.8 225.2;" xml:space="preserve"
	>
<symbol  id="Thanks_x21__Box" viewBox="-68.6 -94.8 137.2 189.6">
	<g>
		<polygon style="fill:#6EC5D8;" points="-65.9,-80.9 -65.9,21.9 -39.9,43.5 67.1,32.8 67.1,-68.1 42.8,-92.6 		"/>
		
			<polyline style="fill:none;stroke:#010202;stroke-width:4.287;stroke-linecap:round;stroke-linejoin:round;stroke-miterlimit:10;" points="
			41.8,-92.6 66.4,-69.1 66.4,30.6 41.8,10.2 41.8,-92.6 -66.4,-80.9 -66.4,22 41.8,11.3 		"/>
		
			<polyline style="fill:none;stroke:#010202;stroke-width:4.287;stroke-linecap:round;stroke-linejoin:round;stroke-miterlimit:10;" points="
			-66.4,23.4 -40.7,43.5 66.4,32.8 		"/>
		<path style="fill:#140E11;" d="M-4.3-21.6c0-4,2.6-7.2,5.9-7.2s5.9,3.2,5.9,7.2s-2.6,7.2-5.9,7.2S-4.3-17.6-4.3-21.6z"/>
		<path style="fill:#140E11;" d="M-32.7-19.5c0-4,2.6-7.2,5.9-7.2s5.9,3.2,5.9,7.2s-2.6,7.2-5.9,7.2S-32.7-15.5-32.7-19.5z"/>
		<path style="fill:#010202;" d="M-34.8-40.7l40.2-4.8c0,0-4.4-23.1-21.5-22.6C-18-68-34.8-64-34.8-40.7z"/>
		
			<polygon style="fill:#1D83BD;stroke:#010202;stroke-width:4.287;stroke-linecap:round;stroke-linejoin:round;stroke-miterlimit:10;" points="
			42.9,26.9 -34.8,34.1 -43.6,29.4 36.4,21.2 		"/>
	</g>
	
		<line style="fill:#1D83BD;stroke:#010202;stroke-width:4.287;stroke-linecap:round;stroke-linejoin:round;stroke-miterlimit:10;" x1="-43.6" y1="29.4" x2="36.4" y2="21.2"/>
	<g>
		<defs>
			<polygon id="SVGID_1_" points="-43.6,31.6 36.4,23.4 55.6,49.5 40.5,93.4 -0.3,94.8 -20.9,80.2 			"/>
		</defs>
		<clipPath id="SVGID_2_">
			<use xlink:href="#SVGID_1_"  style="overflow:visible;"/>
		</clipPath>
		<g style="clip-path:url(#SVGID_2_);">
			<g>
				<g style="enable-background:new    ;">
					<g>
						<polygon style="fill:#A2A6AA;" points="6.3,69.1 36.3,38.7 -5.6,-14.8 -35.5,15.5 						"/>
						<g style="enable-background:new    ;">
							<defs>
								<polygon id="SVGID_3_" style="enable-background:new    ;" points="6.3,69.1 36.3,38.7 -5.6,-14.8 -35.5,15.5 								"/>
							</defs>
							<clipPath id="SVGID_4_">
								<use xlink:href="#SVGID_3_"  style="overflow:visible;"/>
							</clipPath>
							<g style="clip-path:url(#SVGID_4_);">
								<g>
									<g>
										<g>
											<path style="fill:#FFFFFF;" d="M-13.1,36.1l1,1.3L12,13l-1-1.3L-13.1,36.1 M-10.1,39.9l1,1.3l24-24.4l-1-1.3L-10.1,39.9
												 M-7,43.8l1,1.3l24-24.4l-1-1.3L-7,43.8 M-4,47.7l1,1.3l24-24.4l-1-1.3L-4,47.7 M-1,51.6l1,1.3l24-24.4l-1-1.3L-1,51.6
												 M11.9,47l4.9,6.2l5.7-5.8l-4.9-6.2L11.9,47 M36.8,39L6.5,69.7L-26,28.2L4.4-2.5L-26,28.2l5.2,6.7L9.6,4.2L36.8,39"/>
											<path style="fill:#FDDC60;" d="M-2.7,13.1l-0.4,0.4c0,0-0.1,0-0.1,0l-1.7-2.2c0,0,0-0.1,0-0.1l0.4-0.4
												c0.2-0.2,0.6-0.2,0.8,0c0.4,0.4,0.8,0.9,1.1,1.4C-2.5,12.5-2.5,12.8-2.7,13.1 M-11.9,17c-0.1,0.1-0.1,0.2,0,0.2l2.8,3.6
												c0,0.1,0.1,0.1,0.2,0l1.9-1.9c0.1-0.1,0.1-0.2,0-0.2l-0.4-0.5c0-0.1-0.1-0.1-0.2,0l-1.2,1.2c0,0-0.1,0-0.1,0l-0.5-0.6
												c0,0,0-0.1,0-0.1l1.2-1.2c0.1-0.1,0.1-0.2,0-0.2l-0.4-0.5c0-0.1-0.1-0.1-0.2,0l-1.2,1.2c0,0-0.1,0-0.1,0l-0.5-0.6
												c0,0,0-0.1,0-0.1l1.2-1.3c0.1-0.1,0.1-0.2,0-0.2L-9.8,15c0-0.1-0.1-0.1-0.2,0L-11.9,17 M-6.5,14.4
												C-6.5,14.3-6.4,14.3-6.5,14.4l1.6,2c0,0.1,0.1,0.1,0.2,0l0.5-0.5c0.1-0.1,0.1-0.2,0-0.2l-2.8-3.6c0-0.1-0.1-0.1-0.2,0
												l-0.6,0.6c-0.1,0.1-0.1,0.2-0.1,0.2l0.8,2.6c0,0,0,0,0,0c0,0,0,0,0,0l-1.5-1.9c0-0.1-0.1-0.1-0.2,0l-0.5,0.5
												c-0.1,0.1-0.1,0.2,0,0.2l2.8,3.6c0,0.1,0.1,0.1,0.2,0l0.6-0.6c0.1-0.1,0.1-0.2,0.1-0.2L-6.5,14.4
												C-6.5,14.4-6.5,14.4-6.5,14.4 M-6.2,11.2c-0.1,0.1-0.1,0.2,0,0.2l2.8,3.6c0,0.1,0.1,0.1,0.2,0l1.1-1.1
												c0.6-0.7,0.7-1.7,0.2-2.4c-0.3-0.5-0.7-1-1.1-1.4c-0.6-0.6-1.5-0.7-2.1,0L-6.2,11.2 M-13.3,19.6c0.3-0.3,0.7-0.3,0.9-0.1
												c0.2,0.2,0.1,0.5-0.2,1c-0.5,0.8-0.8,1.6-0.3,2.3c0.5,0.6,1.4,0.6,2.1-0.1c0.7-0.7,0.8-1.7,0.3-2.4l-0.1-0.1
												c0-0.1-0.1-0.1-0.2,0l-0.5,0.5c-0.1,0.1-0.1,0.2,0,0.2l0.1,0.1c0.2,0.2,0.1,0.6-0.2,0.9c-0.3,0.3-0.6,0.3-0.8,0.1
												c-0.2-0.2-0.1-0.5,0.2-0.9c0.6-0.9,0.9-1.7,0.3-2.5c-0.5-0.7-1.5-0.6-2.2,0.1c-0.7,0.7-0.8,1.8-0.3,2.4l0.1,0.2
												c0,0.1,0.1,0.1,0.2,0l0.5-0.5c0.1-0.1,0.1-0.2,0-0.2l-0.1-0.2C-13.6,20.3-13.6,19.9-13.3,19.6 M9.6,4.2l-30.3,30.7
												l-5.2-6.7L4.4-2.5L9.6,4.2"/>
											<path style="fill:#FFFFFF;" d="M-10.8,22.7c-0.7,0.7-1.6,0.7-2.1,0.1c-0.5-0.7-0.3-1.5,0.3-2.3c0.3-0.5,0.4-0.8,0.2-1
												c-0.2-0.3-0.6-0.2-0.9,0.1c-0.3,0.3-0.4,0.7-0.2,1l0.1,0.2c0,0.1,0,0.2,0,0.2l-0.5,0.5c-0.1,0.1-0.1,0.1-0.2,0l-0.1-0.2
												c-0.5-0.7-0.4-1.7,0.3-2.4c0.7-0.8,1.7-0.8,2.2-0.1c0.6,0.7,0.3,1.6-0.3,2.5c-0.2,0.3-0.3,0.7-0.2,0.9
												c0.2,0.2,0.5,0.2,0.8-0.1c0.3-0.3,0.3-0.7,0.2-0.9l-0.1-0.1c0-0.1,0-0.2,0-0.2l0.5-0.5c0.1-0.1,0.1-0.1,0.2,0l0.1,0.1
												C-10,21-10.1,22-10.8,22.7"/>
											<path style="fill:#FFFFFF;" d="M-7.1,18.8L-9,20.7c-0.1,0.1-0.1,0.1-0.2,0l-2.8-3.6c0-0.1,0-0.2,0-0.2L-10,15
												c0.1-0.1,0.1-0.1,0.2,0l0.4,0.5c0,0.1,0,0.2,0,0.2l-1.2,1.3c0,0,0,0.1,0,0.1l0.5,0.6c0,0,0.1,0,0.1,0l1.2-1.2
												c0.1-0.1,0.1-0.1,0.2,0l0.4,0.5c0,0.1,0,0.2,0,0.2l-1.2,1.2c0,0,0,0.1,0,0.1l0.5,0.6c0,0,0.1,0,0.1,0l1.2-1.2
												c0.1-0.1,0.1-0.1,0.2,0l0.4,0.5C-7,18.7-7,18.8-7.1,18.8"/>
											<path style="fill:#FFFFFF;" d="M-4.1,15.9l-0.5,0.5c-0.1,0.1-0.1,0.1-0.2,0l-1.6-2c0,0,0,0,0,0c0,0,0,0,0,0l0.9,2.8
												c0,0.1,0,0.2-0.1,0.2L-6.3,18c-0.1,0.1-0.1,0.1-0.2,0l-2.8-3.6c0-0.1,0-0.2,0-0.2l0.5-0.5c0.1-0.1,0.1-0.1,0.2,0l1.5,1.9
												c0,0,0,0,0,0c0,0,0,0,0,0l-0.8-2.6c0-0.1,0-0.1,0.1-0.2l0.6-0.6c0.1-0.1,0.1-0.1,0.2,0l2.8,3.6
												C-4.1,15.7-4.1,15.8-4.1,15.9"/>
											<path style="fill:#FFFFFF;" d="M-4.9,11.2c0,0,0,0.1,0,0.1l1.7,2.2c0,0,0.1,0,0.1,0l0.4-0.4c0.2-0.2,0.2-0.6,0.1-0.9
												c-0.3-0.5-0.7-1-1.1-1.4c-0.2-0.2-0.5-0.2-0.8,0L-4.9,11.2 M-2.1,13.8L-3.2,15c-0.1,0.1-0.1,0.1-0.2,0l-2.8-3.6
												c0-0.1,0-0.2,0-0.2l1.1-1.1c0.6-0.7,1.5-0.6,2.1,0c0.4,0.4,0.8,0.9,1.1,1.4C-1.5,12.2-1.5,13.2-2.1,13.8"/>
											<polyline style="fill:#2FA9E1;" points="12,13 -12.1,37.4 -13.1,36.1 10.9,11.7 12,13 											"/>
											<polyline style="fill:#2FA9E1;" points="15,16.9 -9,41.3 -10.1,39.9 14,15.6 15,16.9 											"/>
											<polyline style="fill:#2FA9E1;" points="18,20.8 -6,45.1 -7,43.8 17,19.4 18,20.8 											"/>
											<polyline style="fill:#2FA9E1;" points="21,24.6 -3,49 -4,47.7 20,23.3 21,24.6 											"/>
											<polyline style="fill:#2FA9E1;" points="24.1,28.5 0,52.9 -1,51.6 23,27.2 24.1,28.5 											"/>
											<path style="fill:#2FA9E1;" d="M15.5,44.8C15.5,44.8,15.5,44.8,15.5,44.8c-1.5,1.6-0.3,3.4-0.3,3.4l3.4-3.4
												C18.5,44.8,17.2,43.1,15.5,44.8 M16.6,48.5c-0.3,0.3-0.3,0.8-0.1,1c0.2,0.3,0.6,0.3,0.9,0c0.3-0.3,0.3-0.8,0.1-1.1
												S16.9,48.2,16.6,48.5 M18.5,46.5c-0.3,0.3-0.3,0.8-0.1,1s0.6,0.3,0.9,0c0.3-0.3,0.3-0.8,0.1-1.1S18.8,46.2,18.5,46.5
												 M22.4,47.4l-5.7,5.8L11.9,47l5.7-5.8L22.4,47.4"/>
											<path style="fill:#FFFFFF;" d="M19.4,47.5c-0.3,0.3-0.7,0.3-0.9,0s-0.2-0.8,0.1-1c0.3-0.3,0.7-0.3,0.9,0
												S19.7,47.2,19.4,47.5"/>
											<path style="fill:#FFFFFF;" d="M17.4,49.5c-0.3,0.3-0.7,0.3-0.9,0c-0.2-0.3-0.2-0.8,0.1-1c0.3-0.3,0.7-0.3,0.9,0
												S17.7,49.2,17.4,49.5"/>
											<path style="fill:#FFFFFF;" d="M18.5,44.8l-3.4,3.4c0,0-1.2-1.9,0.3-3.4c0,0,0,0,0,0C17.2,43.1,18.5,44.8,18.5,44.8"/>
										</g>
									</g>
								</g>
							</g>
						</g>
					</g>
					<g>
						<polygon style="fill:#CCCFD5;" points="6.3,69.1 8.8,70.1 38.7,39.8 36.3,38.7 						"/>
					</g>
					<g>
						<polygon style="fill:#8D9094;" points="36.3,38.7 38.7,39.8 -3.1,-13.8 -5.6,-14.8 						"/>
					</g>
				</g>
			</g>
		</g>
	</g>
</symbol>
<symbol  id="Thanks_x21__Box_Bubble" viewBox="-118 -74 235 147.3">
	<g>
		<g style="opacity:0.75;">
			<polygon style="fill:#B8C9E1;" points="117,62 -113,62 -113,-54 -12.4,-54 1.5,-74 15.1,-54 117,-54 			"/>
		</g>
		<g>
			<polygon style="fill:#FFFFFF;" points="112,67 -118,67 -118,-49 -17.4,-49 -3.5,-69 10.1,-49 112,-49 			"/>
		</g>
	</g>
	<g>
		<g>
			<g>
				<path style="fill:#32A8E0;" d="M-87.6,45.3V14.6c0-0.6-0.5-1.2-1.2-1.2h-5.8c-0.6,0-1.2,0.5-1.2,1.2v30.7c0,0.3-0.2,0.6-0.6,0.6
					h-7.2c-0.6,0-1.2,0.5-1.2,1.2v5.8c0,0.6,0.5,1.2,1.2,1.2h23.8c0.6,0,1.2-0.5,1.2-1.2V47c0-0.6-0.5-1.2-1.2-1.2H-87
					C-87.4,45.9-87.6,45.7-87.6,45.3z"/>
				<path style="fill:#32A8E0;" d="M-55.5,54h5.8c0.6,0,1.2-0.5,1.2-1.2V14.6c0-0.6-0.5-1.2-1.2-1.2h-5.8c-0.6,0-1.2,0.5-1.2,1.2
					v14.5c0,0.3-0.2,0.6-0.6,0.6H-66c-0.3,0-0.6-0.2-0.6-0.6V14.6c0-0.6-0.8-1.2-1.4-1.2h-5.5c-0.6,0-1.2,0.5-1.2,1.2v38.3
					c0,0.6,0.5,1.2,1.2,1.2h5.8c0.6,0,1.2-0.5,1.2-1.2V38.3c0-0.3,0.2-0.6,0.6-0.6h8.8c0.3,0,0.6,0.2,0.6,0.6v14.5
					C-56.6,53.5-56.1,54-55.5,54z"/>
				<path style="fill:#32A8E0;" d="M-24,20.2c-0.1,0.5-0.3,0.9-0.9,0.9h-8.8c-0.5,0-0.8-0.3-0.9-0.9l-1.6-6
					c-0.1-0.5-0.6-0.9-1.1-0.9h-6.1c-0.9,0-1.3,0.6-1.2,1.2l10.4,38.6C-34,53.7-33.5,54-33,54h7.8c0.5,0,1-0.3,1.1-0.9l10.3-38.6
					c0.1-0.5-0.2-1.2-1.2-1.2h-6.1c-0.5,0-0.9,0.3-1.1,0.9L-24,20.2z M-26.1,29.9l-2.8,13.9C-28.9,44-29,44-29.1,44h-0.1
					c-0.2,0-0.2-0.1-0.3-0.2l-2.8-13.9c-0.1-0.5,0.1-0.6,0.5-0.6h5.3C-26.2,29.2-25.9,29.4-26.1,29.9z"/>
				<path style="fill:#32A8E0;" d="M8.3,13.4c-1,0-1.4,0.5-1.6,1l-7.9,20.4c-0.1,0.3-0.5,0.2-0.5-0.1V14.6c0-0.6-0.5-1.2-1.2-1.2
					h-5.8c-0.6,0-1.2,0.5-1.2,1.2v38.3c0,0.6,0.5,1.2,1.2,1.2h6.9c0.9,0,1.3-0.5,1.5-1l7.9-22c0.1-0.3,0.5-0.2,0.5,0.1v21.8
					c0,0.6,0.5,1.2,1.2,1.2h5.8c0.6,0,1.2-0.5,1.2-1.2V14.6c0-0.6-0.5-1.2-1.2-1.2H8.3z"/>
				<path style="fill:#32A8E0;" d="M32.5,29.9c-0.2,0.2-0.6,0.2-0.6-0.2V14.6c0-0.6-0.5-1.2-1.2-1.2H25c-0.6,0-1.2,0.5-1.2,1.2v38.3
					c0,0.6,0.5,1.2,1.2,1.2h5.7c0.6,0,1.2-0.5,1.2-1.2V39.5c0-0.3,0.4-0.4,0.6-0.2L42,53.4c0.2,0.2,0.4,0.6,1.3,0.6h5.9
					c1.1,0,1.6-1.2,1-2.1l-10.8-16c-0.5-0.8-0.5-1.2,0-1.9l11.9-18.4c0.5-0.8,0.1-2.2-1.2-2.2h-6.3c-0.9,0-1.2,0.4-1.3,0.7
					L32.5,29.9z"/>
				<path style="fill:#32A8E0;" d="M67.3,30.1c-7.2,1.6-13,4.8-13,12.3c0,6.8,5.6,12.2,13.3,12.2c7.8,0,13.3-5.4,13.3-12.2v-0.9
					c0-0.6-0.5-1.2-1.2-1.2h-5.9c-0.6,0-1.2,0.5-1.2,1.2v0.9c0,2.3-1.9,4.4-5.2,4.4c-3.2,0-5-1.7-5-4.1c0-2.2,2.1-3.6,5.2-4.2
					c8.1-1.6,14-5,14-13c0-7.5-5.9-12.7-14.2-12.7c-8,0-13.8,5.6-13.8,12.7v1.7c0,0.6,0.5,1.2,1.2,1.2h5.9c0.6,0,1.2-0.5,1.2-1.2
					v-1.7c0-2.7,2-4.8,5.6-4.8c3.5,0,5.7,2,5.7,4.8C73.3,28,71.6,29.1,67.3,30.1z"/>
			</g>
		</g>
		<g>
			<g>
				<path style="fill:none;stroke:#32A8E0;stroke-width:2;stroke-miterlimit:10;" d="M-27.4-9.9c0-2.6-1.3-5.6-3-7.3
					c-0.3-0.3-0.3-0.8,0-1c1.9-1.6,3.4-4.9,3.4-7.9c0-7.6-4.8-12.5-11.9-12.5h-13.7c-0.6,0-1.2,0.5-1.2,1.2V0.8
					c0,0.6,0.5,1.2,1.2,1.2h13.7C-32.3,1.9-27.4-3.4-27.4-9.9z M-39.1-13.7c2,0,3.8,1.7,3.8,3.8c0,2-1.8,3.7-3.8,3.7h-6
					c-0.3,0-0.6-0.2-0.6-0.6v-6.3c0-0.3,0.2-0.6,0.6-0.6H-39.1z M-45.1-21.8c-0.3,0-0.6-0.2-0.6-0.6V-30c0-0.3,0.2-0.6,0.6-0.6h6
					c2.5,0,4.1,2.1,4.1,4.4c0,2.3-1.6,4.4-4.1,4.4H-45.1z"/>
				<path style="fill:none;stroke:#32A8E0;stroke-width:2;stroke-miterlimit:10;" d="M5.2-10.3c0.6-4.9,0.6-11.4,0-16.2
					c-0.8-7-5.8-12.8-13.8-12.8c-8,0-13,5.9-13.8,12.8c-0.6,4.9-0.6,11.4,0,16.2c0.8,7,5.8,12.8,13.8,12.8
					C-0.6,2.6,4.4-3.3,5.2-10.3z M-3-26.5c0.6,4.9,0.6,11.4,0,16.2c-0.3,2.6-2.1,4.6-5.6,4.6c-3.5,0-5.3-2.1-5.6-4.6
					c-0.6-4.9-0.6-11.4,0-16.2c0.3-2.6,2.1-4.6,5.6-4.6C-5.1-31.1-3.3-29-3-26.5z"/>
				<path style="fill:none;stroke:#32A8E0;stroke-width:2;stroke-miterlimit:10;" d="M16.6-37.8c-0.2-0.6-0.7-0.9-1.2-0.9H8.6
					c-0.8,0-1.3,0.8-0.9,1.6l8.5,19.3c0.2,0.5,0.2,0.7,0,1.3L8.6,0.3C8.3,1.1,8.8,1.9,9.6,1.9h6.6c0.5,0,0.8-0.2,1.1-0.9L22-11
					c0.1-0.3,0.6-0.3,0.7,0l4.8,12c0.3,0.6,0.6,0.9,1.1,0.9h6.6c0.8,0,1.3-0.8,0.9-1.6l-7.5-16.8c-0.2-0.6-0.2-0.8,0-1.3l8.5-19.3
					c0.3-0.8-0.2-1.6-0.9-1.6h-6.8c-0.5,0-1,0.2-1.2,0.9l-5.4,13.7c-0.1,0.3-0.6,0.3-0.7,0L16.6-37.8z"/>
			</g>
		</g>
		<g>
			<g>
				<path style="fill:#32A8E0;" d="M88.2,21.6c0,0.5,0.4,0.9,0.9,0.9h6.3c0.5,0,0.9-0.4,0.9-0.9v-6.3c0-0.5-0.4-0.9-0.9-0.9h-6.3
					c-0.5,0-0.9,0.5-0.9,0.9V21.6z M88.5,54.6c0,0.5,0.4,0.9,0.9,0.9h5.7c0.5,0,0.9-0.5,0.9-0.9V27.5c0-0.5-0.4-0.9-0.9-0.9h-5.7
					c-0.5,0-0.9,0.5-0.9,0.9V54.6z"/>
			</g>
		</g>
	</g>
	<polygon style="display:none;fill:none;" points="-118,73 117,73 117,-74 -118,-74 	"/>
</symbol>
<symbol  id="Thanks_x21_Box" viewBox="-117.5 -163.2 235 326.5">
	
		<use xlink:href="#Thanks_x21__Box_Bubble"  width="235" height="147.3" x="-118" y="-74" transform="matrix(1 0 0 1 0.5 89.9804)" style="overflow:visible;"/>
	
		<use xlink:href="#Thanks_x21__Box"  width="137.2" height="189.6" x="-68.6" y="-94.8" transform="matrix(1 0 0 1 -11.3534 -68.4595)" style="overflow:visible;"/>
</symbol>
<use xlink:href="#Thanks_x21_Box"  width="235" height="326.5" x="-117.5" y="-163.2" transform="matrix(0.6844 0 0 -0.6844 80.4216 111.7313)" style="overflow:visible;"/>
<g>
</g>
<g>
</g>
<g>
</g>
<g>
</g>
<g>
</g>
<g>
</g>
<g>
</g>
<g>
</g>
<g>
</g>
<g>
</g>
<g>
</g>
<g>
</g>
<g>
</g>
<g>
</g>
<g>
</g>
<g>
</g>
<g>
</g>
<g>
</g>
<g>
</g>
<g>
</g>
<g>
</g>
<g>
</g>
<g>
</g>
<g>
</g>
<g>
</g>
</svg>
